<?xml version="1.0" encoding="UTF-8"?>
<svg width="1200pt" height="1200pt" version="1.1" viewBox="0 0 1200 1200" xmlns="http://www.w3.org/2000/svg">
 <path d="m560.76 609.77c-3.5039 3.4336-6.0234 7.1758-7.6094 11.398-1.6328 4.2227-2.4258 8.5938-2.4258 13.273 0 10.512 3.3828 19.055 10.152 25.586 6.8164 6.4805 15.551 11.977 26.258 16.488l8.0156-81.191c-8.207 1.2734-15.098 3.1211-20.734 5.6172-5.5938 2.5156-10.18 5.4648-13.656 8.8281z"/>
 <path d="m628.66 768.12-8.5664 88.105c29.473-4.8242 44.23-20.977 44.23-48.504 0-10.367-3.3125-18.504-9.793-24.504-6.5508-5.9531-15.121-11.02-25.871-15.098z"/>
 <path d="m1164.5 556.08-544.3-546.79c-0.43359-0.48047-0.57422-1.0547-1.0312-1.5117-5.3281-5.2812-12.242-7.8477-19.152-7.7773-6.9102-0.070312-13.848 2.4961-19.152 7.7773-0.45703 0.45703-0.60156 1.0312-1.0078 1.5117l-544.32 546.79c-10.488 10.488-10.414 27.406 0.070313 37.871 10.512 10.441 27.434 10.441 37.895-0.097657l138.05-138.7v691.25l-113.83 0.003906c-14.832 0-26.785 11.953-26.785 26.785 0.003906 14.832 11.953 26.809 26.785 26.809h1004.6c14.785 0 26.785-11.953 26.785-26.785 0-14.762-12-26.785-26.785-26.785h-113.86v-691.27l138.07 138.7c10.465 10.512 27.359 10.512 37.895 0.097656 10.465-10.465 10.516-27.387 0.050781-37.875zm-430.01 287.19c-5.6875 14.902-14.039 28.129-25.129 39.602-11.113 11.543-24.648 20.902-40.727 28.152-16.078 7.2461-34.488 11.664-55.199 13.246l-3.2383 33.215c-0.35938 5.0391-2.543 9.5273-6.5508 13.535-4.0078 4.0078-9.1445 6.0469-15.406 6.0469h-30.527l5.3281-55.223c-20.543-3.3594-40.129-9.3125-58.777-17.785-18.672-8.4961-34.414-18.719-47.305-30.672l25.727-37.297c2.1367-3 5.0391-5.543 8.6641-7.5859 3.6719-2.0625 7.5352-3.0977 11.688-3.0977 4.2969 0 8.6406 1.1289 13.129 3.3594 4.4414 2.2305 9.3125 4.9219 14.594 8.0391 5.2305 3.1445 11.039 6.3359 17.375 9.6484 6.3125 3.3125 13.512 6.0234 21.574 8.1602l9.9102-101.04c-12.84-3.5273-25.656-7.7266-38.449-12.527-12.793-4.8477-24.238-11.375-34.441-19.535-10.176-8.207-18.434-18.672-24.77-31.391-6.3359-12.648-9.5039-28.512-9.5039-47.641 0-14.09 2.8789-27.863 8.5664-41.258 5.6875-13.391 14.062-25.465 25.078-36.168 10.945-10.703 24.48-19.512 40.559-26.375 16.078-6.8867 34.465-10.848 55.199-11.93l2.9531-29.734c0.33594-5.0156 2.5195-9.5039 6.5508-13.535 4.0078-4.0078 9.1211-6.0234 15.406-6.0234h30.551l-5.1133 52.512c19.32 3.5742 35.902 9.3828 49.68 17.426 13.848 8.0156 25.586 16.609 35.207 25.727l-20.352 29.734c-3.0469 4.4883-6.1445 7.7031-9.2148 9.7695-3.1445 2.0625-6.8867 3.0977-11.16 3.0977-2.6875 0-5.8789-0.625-9.5039-2.0156-3.6484-1.3438-7.5859-2.9531-11.879-4.8242-4.2969-1.8711-8.8789-3.8633-13.801-5.9023-4.9219-2.0156-10.152-3.8867-15.695-5.4961l-9.3594 95.137c8.5664 2.4961 17.184 5.2578 25.727 8.1836 8.5664 2.9531 16.801 6.3359 24.742 10.199 7.9688 3.8398 15.383 8.2812 22.246 13.246 6.8867 5.0156 12.863 10.871 17.93 17.664 5.1367 6.793 9.1445 14.543 11.93 23.328 2.8789 8.7617 4.3203 18.816 4.3203 30.266 0.058594 16.945-2.8203 32.855-8.5312 47.762z"/>
</svg>
